<svg width="24" height="24" viewBox="0 0 24 24" fill="none" xmlns="http://www.w3.org/2000/svg">
<path d="M4.17273 19.098L18.3751 10.8983V15.4033C18.3751 16.54 19.1332 17.7803 19.7437 18.5949C20.0086 18.9483 19.7612 19.5 19.3196 19.5H14.9587C14.7207 20.9189 13.4867 22.0001 12.0002 22.0001C10.5136 22.0001 9.27965 20.9189 9.04162 19.5H4.68063C4.4277 19.5 4.23849 19.3191 4.17273 19.098Z" fill="black"/>
<path d="M5.3597 16.6806C5.35969 16.6807 5.35971 16.6806 5.3597 16.6806L18.3091 9.20436C18.3091 9.20434 18.3091 9.20437 18.3091 9.20436L22.3009 6.89962L21.5509 5.60059L17.9008 7.70796C17.0392 5.60682 15.088 4.06772 12.7502 3.79369V1.875H11.2502V3.79368C8.08276 4.1649 5.62512 6.85824 5.62512 10.1253V14.7953L1.63232 17.1006L2.38232 18.3996L5.3597 16.6806Z" fill="black"/>
</svg>