<svg width="24" height="24" viewBox="0 0 24 24" fill="none" xmlns="http://www.w3.org/2000/svg">
<path fill-rule="evenodd" clip-rule="evenodd" d="M22 12C22 17.5228 17.5228 22 12 22C6.47715 22 2 17.5228 2 12C2 6.47715 6.47715 2 12 2C17.5228 2 22 6.47715 22 12ZM20.5 12C20.5 16.6944 16.6944 20.5 12 20.5C9.92283 20.5 8.01968 19.7549 6.54323 18.5174L18.5174 6.54323C19.7549 8.01968 20.5 9.92283 20.5 12ZM5.48256 17.4568L17.4568 5.48256C15.9803 4.24508 14.0772 3.5 12 3.5C7.30558 3.5 3.5 7.30558 3.5 12C3.5 14.0772 4.24508 15.9803 5.48256 17.4568Z" fill="black"/>
</svg>