<svg xmlns="http://www.w3.org/2000/svg" width="24" height="24" viewBox="0 0 24 24" fill="none">
<path fill-rule="evenodd" clip-rule="evenodd" d="M19.5 21H17V22L15 21L13 22V21H6.5C5.43451 21 4.49875 20.4445 3.96651 19.6074C3.36411 18.9072 3 17.9961 3 17V7C3 4.79086 4.79086 3 7 3H19.5C19.7761 3 20 3.22386 20 3.5V20.5C20 20.7761 19.7761 21 19.5 21ZM9.5 4.5H18.5V15H9.5V4.5ZM8 4.5H7C5.61929 4.5 4.5 5.61929 4.5 7V15.7639C5.03076 15.2889 5.73165 15 6.5 15H8V4.5ZM7 19.5C6.28326 19.5 5.63697 19.1984 5.18113 18.7152C5.06562 18.5026 5 18.2589 5 18C5 17.1716 5.67157 16.5 6.5 16.5H18.5V19.5H17V18H13V19.5H7Z" fill="black"/>
</svg>