<svg xmlns="http://www.w3.org/2000/svg" width="24" height="24" viewBox="0 0 24 24" fill="none">
<path fill-rule="evenodd" clip-rule="evenodd" d="M9.25 4.5C6.07436 4.5 3.5 7.07436 3.5 10.25C3.5 12.8552 5.23311 15.0575 7.61089 15.7632L8.25449 15.9542L7.58516 19.6756L11.5518 16H14.75C17.9256 16 20.5 13.4256 20.5 10.25C20.5 7.07436 17.9256 4.5 14.75 4.5H9.25ZM2 10.25C2 6.24594 5.24594 3 9.25 3H14.75C18.7541 3 22 6.24594 22 10.25C22 14.2541 18.7541 17.5 14.75 17.5H12.1399L7.39843 21.8937C6.72948 22.5135 5.65629 21.9263 5.81773 21.0287L6.54615 16.9788C3.88183 15.9071 2 13.2992 2 10.25Z" fill="black"/>
</svg>