<svg xmlns="http://www.w3.org/2000/svg" width="24" height="24" viewBox="0 0 24 24" fill="none">
<path fill-rule="evenodd" clip-rule="evenodd" d="M8.10048 4.125C8.23446 3.89295 8.48205 3.75 8.75 3.75H15.25C15.5179 3.75 15.7655 3.89295 15.8995 4.125L17.433 6.78109H21.25C21.6642 6.78109 22 7.11688 22 7.53109V19.5C22 19.9142 21.6642 20.25 21.25 20.25H2.75C2.33579 20.25 2 19.9142 2 19.5V7.53109C2 7.11688 2.33579 6.78109 2.75 6.78109H6.56699L8.10048 4.125ZM19 11C19 11.5523 18.5523 12 18 12C17.4477 12 17 11.5523 17 11C17 10.4477 17.4477 10 18 10C18.5523 10 19 10.4477 19 11ZM14.5 13C14.5 14.3807 13.3807 15.5 12 15.5C10.6193 15.5 9.5 14.3807 9.5 13C9.5 11.6193 10.6193 10.5 12 10.5C13.3807 10.5 14.5 11.6193 14.5 13Z" fill="black"/>
</svg>