<svg width="24" height="24" viewBox="0 0 24 24" fill="none" xmlns="http://www.w3.org/2000/svg">
<path fill-rule="evenodd" clip-rule="evenodd" d="M8.75 13C8.75 11.2051 10.2051 9.75 12 9.75C13.7949 9.75 15.25 11.2051 15.25 13C15.25 14.7949 13.7949 16.25 12 16.25C10.2051 16.25 8.75 14.7949 8.75 13ZM12 11.25C11.0335 11.25 10.25 12.0335 10.25 13C10.25 13.9665 11.0335 14.75 12 14.75C12.9665 14.75 13.75 13.9665 13.75 13C13.75 12.0335 12.9665 11.25 12 11.25Z" fill="black"/>
<path d="M19 11C19 11.5523 18.5523 12 18 12C17.4477 12 17 11.5523 17 11C17 10.4477 17.4477 10 18 10C18.5523 10 19 10.4477 19 11Z" fill="black"/>
<path fill-rule="evenodd" clip-rule="evenodd" d="M8.75 3.75C8.48205 3.75 8.23446 3.89295 8.10048 4.125L6.56699 6.78109H2.75C2.33579 6.78109 2 7.11688 2 7.53109V19.5C2 19.9142 2.33579 20.25 2.75 20.25H21.25C21.6642 20.25 22 19.9142 22 19.5V7.53109C22 7.11688 21.6642 6.78109 21.25 6.78109H17.433L15.8995 4.125C15.7655 3.89295 15.5179 3.75 15.25 3.75H8.75ZM7.64952 7.90609L9.18301 5.25L14.817 5.25L16.3505 7.90609C16.4845 8.13814 16.7321 8.28109 17 8.28109H20.5V18.75H3.5V8.28109H7C7.26795 8.28109 7.51554 8.13814 7.64952 7.90609Z" fill="black"/>
</svg>