<svg xmlns="http://www.w3.org/2000/svg" width="24" height="24" viewBox="0 0 24 24" fill="none">
<path fill-rule="evenodd" clip-rule="evenodd" d="M12 20.5C16.6944 20.5 20.5 16.6944 20.5 12C20.5 7.30558 16.6944 3.5 12 3.5C7.30558 3.5 3.5 7.30558 3.5 12C3.5 16.6944 7.30558 20.5 12 20.5ZM12 22C17.5228 22 22 17.5228 22 12C22 6.47715 17.5228 2 12 2C6.47715 2 2 6.47715 2 12C2 17.5228 6.47715 22 12 22Z" fill="black"/>
<path d="M9.75 9C9.33579 9 9 9.33579 9 9.75V10.5C9 10.9142 9.33579 11.25 9.75 11.25C10.1642 11.25 10.5 10.9142 10.5 10.5V9.75C10.5 9.33579 10.1642 9 9.75 9Z" fill="black"/>
<path d="M14.25 9C13.8358 9 13.5 9.33579 13.5 9.75V10.5C13.5 10.9142 13.8358 11.25 14.25 11.25C14.6642 11.25 15 10.9142 15 10.5V9.75C15 9.33579 14.6642 9 14.25 9Z" fill="black"/>
<path fill-rule="evenodd" clip-rule="evenodd" d="M9.09258 13.3013L9.09225 13.3003L9.09161 13.2984L9.09043 13.295L9.08853 13.2897L9.08665 13.2847L9.08744 13.2866C9.08921 13.2915 9.09093 13.2964 9.09258 13.3013ZM14.9126 13.2866C14.9126 13.2866 14.9104 13.2915 14.9084 13.2957C14.9008 13.3117 14.8841 13.3441 14.855 13.3877C14.7973 13.4742 14.6889 13.6084 14.5 13.75C14.1285 14.0286 13.3926 14.375 12 14.375C10.6074 14.375 9.8715 14.0286 9.5 13.75C9.31114 13.6084 9.20269 13.4742 9.14503 13.3877C9.11594 13.3441 9.09925 13.3117 9.09163 13.2957C9.08961 13.2915 9.08824 13.2884 9.08744 13.2866C8.97233 12.9692 8.62453 12.7997 8.30236 12.9071C7.97489 13.0162 7.79792 13.3702 7.90707 13.6976L7.90858 13.7021L7.90743 13.6987L7.9078 13.6998L7.90858 13.7021L7.91032 13.7071L7.91452 13.7189C7.91766 13.7275 7.92148 13.7375 7.92605 13.749C7.93518 13.7718 7.94733 13.8001 7.96306 13.8332C7.9945 13.8992 8.04031 13.9841 8.10497 14.0811C8.23481 14.2758 8.43886 14.5166 8.75 14.75C9.3785 15.2214 10.3926 15.625 12 15.625C13.6074 15.625 14.6215 15.2214 15.25 14.75C15.5611 14.5166 15.7652 14.2758 15.895 14.0811C15.9597 13.9841 16.0055 13.8992 16.0369 13.8332C16.0527 13.8001 16.0648 13.7718 16.0739 13.749C16.0785 13.7375 16.0823 13.7275 16.0855 13.7189L16.0897 13.7071L16.0914 13.7021L16.0922 13.6998L16.0926 13.6987L16.0929 13.6976C16.2021 13.3702 16.0251 13.0162 15.6976 12.9071C15.3755 12.7997 15.0277 12.9692 14.9126 13.2866Z" fill="black"/>
</svg>