<svg width="24" height="24" viewBox="0 0 24 24" fill="none" xmlns="http://www.w3.org/2000/svg">
<path d="M4.25 10V21H5.75V10H7.25C7.52614 10 7.75 9.77614 7.75 9.5V7.5C7.75 7.22386 7.52614 7 7.25 7H5.75V3H4.25V7H2.75C2.47386 7 2.25 7.22386 2.25 7.5V9.5C2.25 9.77614 2.47386 10 2.75 10H4.25Z" fill="black"/>
<path d="M11.25 3V15H9.75C9.47386 15 9.25 15.2239 9.25 15.5V17.5C9.25 17.7761 9.47386 18 9.75 18H11.25V21H12.75V18H14.25C14.5261 18 14.75 17.7761 14.75 17.5V15.5C14.75 15.2239 14.5261 15 14.25 15H12.75V3H11.25Z" fill="black"/>
<path d="M18.25 10V3H19.75V10H21.25C21.5261 10 21.75 10.2239 21.75 10.5V12.5C21.75 12.7761 21.5261 13 21.25 13H19.75V21H18.25V13H16.75C16.4739 13 16.25 12.7761 16.25 12.5V10.5C16.25 10.2239 16.4739 10 16.75 10H18.25Z" fill="black"/>
</svg>