<svg xmlns="http://www.w3.org/2000/svg" width="24" height="24" viewBox="0 0 24 24" fill="none">
<path d="M6 3H7.5V5H16.5V3H18V5H20.5C20.7761 5 21 5.22386 21 5.5V13.9996C20.5523 13.6634 20.0464 13.4005 19.5 13.2289V9H4.5V19.5H13.2289C13.4005 20.0464 13.6634 20.5523 13.9996 21H3.5C3.22386 21 3 20.7761 3 20.5V5.5C3 5.22386 3.22386 5 3.5 5H6V3Z" fill="black"/>
<path d="M10.1459 16.5L10.5 14.3292L9 12.7919L11.0729 12.4751L12 10.5L12.9271 12.4751L15 12.7919L13.5 14.3292L13.8541 16.5L12 15.4751L10.1459 16.5Z" fill="black"/>
<path fill-rule="evenodd" clip-rule="evenodd" d="M21.9844 18.0039C21.9844 20.213 20.1935 22.0039 17.9844 22.0039C15.7752 22.0039 13.9844 20.213 13.9844 18.0039C13.9844 15.7948 15.7752 14.0039 17.9844 14.0039C20.1935 14.0039 21.9844 15.7948 21.9844 18.0039ZM20.338 17.3555L17.4844 20.2091L15.6309 18.3555L16.338 17.6484L17.4844 18.7949L19.6309 16.6484L20.338 17.3555Z" fill="black"/>
</svg>