<svg xmlns="http://www.w3.org/2000/svg" width="24" height="24" viewBox="0 0 24 24" fill="none">
<path fill-rule="evenodd" clip-rule="evenodd" d="M2 6.5C2 6.22386 2.22386 6 2.5 6H17.0501C17.3262 6 17.5501 6.22386 17.5501 6.5V10.4499L21.1464 6.85355C21.4614 6.53857 22 6.76165 22 7.20711V16.7929C22 17.2383 21.4614 17.4614 21.1464 17.1464L17.5501 13.5501V17.5C17.5501 17.7761 17.3262 18 17.0501 18H2.5C2.22386 18 2 17.7761 2 17.5V6.5ZM3.5 16.5V7.5H16.0501V16.5H3.5ZM20.5 14.3787L18.1213 12L20.5 9.62132V14.3787Z" fill="black"/>
</svg>