<svg width="24" height="24" viewBox="0 0 24 24" fill="none" xmlns="http://www.w3.org/2000/svg">
<path d="M3.25 12C3.25 7.16751 7.16751 3.25 12 3.25C16.8325 3.25 20.75 7.16751 20.75 12V13.3385C20.9056 13.5148 21 13.7464 21 14V19C21 19.5523 20.5523 20 20 20H19C17.8954 20 17 19.1046 17 18V15C17 13.8954 17.8954 13 19 13H19.25V12C19.25 7.99594 16.0041 4.75 12 4.75C7.99594 4.75 4.75 7.99594 4.75 12V13H5C6.10457 13 7 13.8954 7 15V18C7 19.1046 6.10457 20 5 20H4C3.44772 20 3 19.5523 3 19V14C3 13.7464 3.09441 13.5148 3.25 13.3385V12Z" fill="black"/>
</svg>