<svg xmlns="http://www.w3.org/2000/svg" width="24" height="24" viewBox="0 0 24 24" fill="none">
<path fill-rule="evenodd" clip-rule="evenodd" d="M3.25012 12C3.25012 7.16751 7.16763 3.25 12.0001 3.25C14.9637 3.25 17.5832 4.72334 19.166 6.9775L21.5509 5.60059L22.3009 6.89962L19.9196 8.27444C19.9196 8.27444 19.9197 8.27445 19.9196 8.27444L18.6148 9.02781C18.6148 9.0278 18.6148 9.02782 18.6148 9.02781L2.38232 18.3996L1.63232 17.1006L3.00012 16.3109V14C3.00012 13.7464 3.09453 13.5148 3.25012 13.3385V12ZM6.79623 14.1192L17.8607 7.73112C16.5422 5.92411 14.4083 4.75 12.0001 4.75C7.99606 4.75 4.75012 7.99594 4.75012 12V13H5.00012C5.78861 13 6.47052 13.4563 6.79623 14.1192Z" fill="black"/>
<path d="M19.0915 10.4847L20.4455 9.70293C20.6441 10.435 20.7501 11.2051 20.7501 12V13.3385C20.9057 13.5148 21.0001 13.7464 21.0001 14V19C21.0001 19.5523 20.5524 20 20.0001 20H19.0001C17.8956 20 17.0001 19.1046 17.0001 18V15C17.0001 13.8954 17.8956 13 19.0001 13H19.2501V12C19.2501 11.4803 19.1954 10.9734 19.0915 10.4847Z" fill="black"/>
<path d="M3.23245 19.6409L7.00012 17.4656V18C7.00012 19.1046 6.10469 20 5.00012 20H4.00012C3.6917 20 3.41589 19.8604 3.23245 19.6409Z" fill="black"/>
</svg>