<svg width="24" height="24" viewBox="0 0 24 24" fill="none" xmlns="http://www.w3.org/2000/svg">
<path d="M11.7998 15C11.2475 15 10.7998 15.4477 10.7998 16C10.7998 16.5523 11.2475 17 11.7998 17C12.3521 17 12.7998 16.5523 12.7998 16C12.7998 15.4477 12.3521 15 11.7998 15Z" fill="black"/>
<path d="M12.5606 14H11.0303C10.824 12.5668 11.5832 11.9588 12.2788 11.4017C12.8094 10.9767 13.303 10.5814 13.303 9.87218C13.303 9.04511 12.7727 8.41353 11.8182 8.41353C11.106 8.41353 10.5 9 10.5002 10H8.79999C9.09979 7.5 10.7576 7 12.0151 7C13.7727 7 15 7.99248 15 9.75188C15 10.8202 14.3614 11.3242 13.7354 11.8182C13.0749 12.3395 12.4284 12.8497 12.5606 14Z" fill="black"/>
<path fill-rule="evenodd" clip-rule="evenodd" d="M12 22C17.5228 22 22 17.5228 22 12C22 6.47715 17.5228 2 12 2C6.47715 2 2 6.47715 2 12C2 17.5228 6.47715 22 12 22ZM12 20.5C16.6944 20.5 20.5 16.6944 20.5 12C20.5 7.30558 16.6944 3.5 12 3.5C7.30558 3.5 3.5 7.30558 3.5 12C3.5 16.6944 7.30558 20.5 12 20.5Z" fill="black"/>
</svg>