<svg width="24" height="24" viewBox="0 0 24 24" fill="none" xmlns="http://www.w3.org/2000/svg">
<path d="M12.75 17L12.75 10.5H11.25L11.25 17H12.75Z" fill="black"/>
<path d="M11 8.5C11 7.94771 11.4477 7.5 12 7.5C12.5523 7.5 13 7.94771 13 8.5C13 9.05228 12.5523 9.5 12 9.5C11.4477 9.5 11 9.05228 11 8.5Z" fill="black"/>
<path fill-rule="evenodd" clip-rule="evenodd" d="M3.5 3C3.22386 3 3 3.22386 3 3.5V20.5C3 20.7761 3.22386 21 3.5 21H17C19.2091 21 21 19.2091 21 17V3.5C21 3.22386 20.7761 3 20.5 3H3.5ZM4.5 4.5V19.5H17C18.3807 19.5 19.5 18.3807 19.5 17V4.5H4.5Z" fill="black"/>
</svg>