<svg width="24" height="24" viewBox="0 0 24 24" fill="none" xmlns="http://www.w3.org/2000/svg">
<path d="M13.4854 8.68333V7.16667H4.7998V8.68333H13.4854ZM12.763 11.8333C12.763 10.2667 11.251 9.1 9.235 9.1C7.1686 9.1 5.6734 10.2667 5.6734 11.8333C5.6734 13.4167 7.1854 14.5333 9.235 14.5333C11.251 14.5333 12.763 13.4167 12.763 11.8333ZM7.0174 6.46667H11.4694V4.98333H7.0174V6.46667ZM16.627 4.5H14.6614V15.5333H16.627V10.9167H18.7102V9.3H16.627V4.5ZM16.9798 19V17.45H8.731V15.0833H6.7486V19H16.9798ZM7.6222 11.8333C7.6222 11.1333 8.3614 10.65 9.235 10.65C10.0918 10.65 10.8478 11.1333 10.8478 11.8333C10.8478 12.5 10.0918 12.9667 9.235 12.9667C8.3614 12.9667 7.6222 12.5 7.6222 11.8333Z" fill="black"/>
</svg>