<svg xmlns="http://www.w3.org/2000/svg" width="24" height="24" viewBox="0 0 24 24" fill="none">
<path d="M19.594 4.39124C17.739 2.53625 14.7315 2.53625 12.8765 4.39124L10.0481 7.21967L11.1088 8.28033L13.9372 5.4519C15.2064 4.1827 17.2642 4.1827 18.5334 5.4519C19.8026 6.72111 19.8026 8.77889 18.5334 10.0481L15.705 12.8765L16.7656 13.9372L19.594 11.1088C21.449 9.25377 21.449 6.24623 19.594 4.39124Z" fill="black"/>
<path d="M5.4519 13.9372L8.28033 11.1088L7.21967 10.0481L4.39124 12.8765C2.53625 14.7315 2.53625 17.739 4.39124 19.594C6.24623 21.449 9.25377 21.449 11.1088 19.594L13.9372 16.7656L12.8765 15.705L10.0481 18.5334C8.77889 19.8026 6.72111 19.8026 5.4519 18.5334C4.1827 17.2642 4.1827 15.2064 5.4519 13.9372Z" fill="black"/>
<path d="M13.5629 9.56282L9.32022 13.8055L10.3809 14.8661L14.6235 10.6235L13.5629 9.56282Z" fill="black"/>
</svg>