<svg xmlns="http://www.w3.org/2000/svg" width="24" height="24" viewBox="0 0 24 24" fill="none">
<path fill-rule="evenodd" clip-rule="evenodd" d="M12.0001 4.25C11.0336 4.25 10.2501 5.0335 10.2501 6V12C10.2501 12.0412 10.2515 12.0821 10.2544 12.1227L13.7501 10.1044V6C13.7501 5.0335 12.9666 4.25 12.0001 4.25ZM15.2501 9.23835V6C15.2501 4.20507 13.795 2.75 12.0001 2.75C10.2052 2.75 8.75012 4.20507 8.75012 6V12C8.75012 12.3179 8.79578 12.6252 8.88089 12.9156L7.11767 13.9336C6.88048 13.3352 6.75012 12.6828 6.75012 12H5.25012C5.25012 12.9562 5.44893 13.8659 5.80745 14.6901L1.63232 17.1006L2.38232 18.3996L6.55533 15.9903C6.55532 15.9903 6.55533 15.9903 6.55533 15.9903L7.86455 15.2345C7.86454 15.2345 7.86456 15.2345 7.86455 15.2345L9.62479 14.2182C9.62478 14.2182 9.62479 14.2182 9.62479 14.2182L10.9906 13.4297C10.9906 13.4296 10.9906 13.4297 10.9906 13.4297L22.3009 6.89962L21.5509 5.60059L15.2501 9.23835ZM9.00164 16.31L7.60027 17.1191C8.60364 17.9823 9.8636 18.5555 11.2501 18.7088V22H12.7501V18.7088C16.1251 18.3357 18.7501 15.4744 18.7501 12H17.2501C17.2501 14.8995 14.8996 17.25 12.0001 17.25C10.8854 17.25 9.85173 16.9026 9.00164 16.31ZM15.1624 12.7531L11.0711 15.1153C11.3654 15.2029 11.6773 15.25 12.0001 15.25C13.5358 15.25 14.8227 14.1849 15.1624 12.7531Z" fill="black"/>
</svg>