<svg xmlns="http://www.w3.org/2000/svg" width="24" height="24" viewBox="0 0 24 24" fill="none">
<path fill-rule="evenodd" clip-rule="evenodd" d="M12 2.75C10.2051 2.75 8.75 4.20507 8.75 6V12C8.75 13.7949 10.2051 15.25 12 15.25C13.7949 15.25 15.25 13.7949 15.25 12V6C15.25 4.20507 13.7949 2.75 12 2.75ZM13.75 12V6C13.75 5.0335 12.9665 4.25 12 4.25C11.0335 4.25 10.25 5.0335 10.25 6V12C10.25 12.9665 11.0335 13.75 12 13.75C12.9665 13.75 13.75 12.9665 13.75 12Z" fill="black"/>
<path d="M6.75 12C6.75 14.8995 9.10051 17.25 12 17.25C14.8995 17.25 17.25 14.8995 17.25 12H18.75C18.75 15.4744 16.125 18.3357 12.75 18.7088V22H11.25V18.7088C7.87504 18.3357 5.25 15.4744 5.25 12H6.75Z" fill="black"/>
</svg>