<svg width="24" height="24" viewBox="0 0 24 24" fill="none" xmlns="http://www.w3.org/2000/svg">
<path d="M13.25 17.5C13.25 18.1904 12.6904 18.75 12 18.75C11.3096 18.75 10.75 18.1904 10.75 17.5C10.75 16.8096 11.3096 16.25 12 16.25C12.6904 16.25 13.25 16.8096 13.25 17.5Z" fill="black"/>
<path d="M13.25 6.5C13.25 7.19036 12.6904 7.75 12 7.75C11.3096 7.75 10.75 7.19036 10.75 6.5C10.75 5.80964 11.3096 5.25 12 5.25C12.6904 5.25 13.25 5.80964 13.25 6.5Z" fill="black"/>
<path d="M12 13.25C12.6904 13.25 13.25 12.6904 13.25 12C13.25 11.3096 12.6904 10.75 12 10.75C11.3096 10.75 10.75 11.3096 10.75 12C10.75 12.6904 11.3096 13.25 12 13.25Z" fill="black"/>
</svg>