<svg width="24" height="24" viewBox="0 0 24 24" fill="none" xmlns="http://www.w3.org/2000/svg">
<path d="M20.4546 7.29034C20.8182 7.08039 20.8182 6.55553 20.4546 6.34558L15.1364 3.27513C14.7727 3.06518 14.3182 3.32762 14.3182 3.74751V9.88841C14.3182 10.3083 14.7728 10.5707 15.1364 10.3608L20.4546 7.29034Z" fill="black"/>
<path fill-rule="evenodd" clip-rule="evenodd" d="M19.6364 14.7271H14.7273V19.6361H19.6364V14.7271ZM14.7273 13.0907C13.8236 13.0907 13.0909 13.8233 13.0909 14.7271V19.6361C13.0909 20.5399 13.8236 21.2725 14.7273 21.2725H19.6364C20.5401 21.2725 21.2728 20.5399 21.2728 19.6361V14.7271C21.2728 13.8233 20.5401 13.0907 19.6364 13.0907H14.7273Z" fill="black"/>
<path fill-rule="evenodd" clip-rule="evenodd" d="M9.27275 4.36341H4.36366L4.36366 9.27251H9.27275V4.36341ZM4.36366 2.72705C3.45992 2.72705 2.72729 3.45968 2.72729 4.36341V9.27251C2.72729 10.1762 3.45992 10.9089 4.36366 10.9089H9.27275C10.1765 10.9089 10.9091 10.1762 10.9091 9.27251V4.36341C10.9091 3.45968 10.1765 2.72705 9.27275 2.72705H4.36366Z" fill="black"/>
<path fill-rule="evenodd" clip-rule="evenodd" d="M9.27275 14.7271H4.36366L4.36366 19.6361H9.27275V14.7271ZM4.36366 13.0907C3.45992 13.0907 2.72729 13.8233 2.72729 14.7271V19.6361C2.72729 20.5399 3.45992 21.2725 4.36366 21.2725H9.27275C10.1765 21.2725 10.9091 20.5399 10.9091 19.6361V14.7271C10.9091 13.8233 10.1765 13.0907 9.27275 13.0907H4.36366Z" fill="black"/>
</svg>