<svg width="24" height="24" viewBox="0 0 24 24" fill="none" xmlns="http://www.w3.org/2000/svg">
<path d="M6 9.5C6 6.46243 8.46243 4 11.5 4H15.5C18.5376 4 21 6.46243 21 9.5C21 11.7814 19.6109 13.7384 17.6324 14.5714L17.9511 17.1412C17.9723 17.3114 17.7834 17.4275 17.641 17.3318L14.1741 15H11.5C8.46243 15 6 12.5376 6 9.5Z" fill="black"/>
<path d="M3 14.9999C3 13.5401 3.78199 12.2629 4.94993 11.5645C5.99753 14.4436 8.75864 16.4999 12 16.4999H12.7092C12.1159 17.9658 10.6787 18.9999 9 18.9999H7.82629L5.37009 20.738C5.22816 20.8384 5.03451 20.7224 5.05612 20.5499L5.29776 18.6206C3.93987 17.9811 3 16.6003 3 14.9999Z" fill="black"/>
</svg>