<svg width="24" height="24" viewBox="0 0 24 24" fill="none" xmlns="http://www.w3.org/2000/svg">
<path fill-rule="evenodd" clip-rule="evenodd" d="M2.84595 15.7877V20.5959C2.84595 21.0101 3.18173 21.3459 3.59595 21.3459L8.40416 21.3459C8.60307 21.3459 8.79383 21.2669 8.93449 21.1262L21.9853 8.07535C22.2782 7.78246 22.2782 7.30759 21.9853 7.01469L17.1771 2.20649C16.8842 1.91359 16.4094 1.91359 16.1165 2.20649L3.06562 15.2573C2.92497 15.398 2.84595 15.5888 2.84595 15.7877ZM17.4394 10.5L8.0935 19.8459H4.34595L4.34595 16.0983L13.6918 6.75243L17.4394 10.5ZM18.5001 9.43932L20.3943 7.54502L16.6468 3.79748L14.7525 5.69177L18.5001 9.43932Z" fill="black"/>
</svg>