<svg xmlns="http://www.w3.org/2000/svg" width="24" height="24" viewBox="0 0 24 24" fill="none">
<path fill-rule="evenodd" clip-rule="evenodd" d="M8.37927 3.83786C7.63299 3.09571 6.42305 3.09571 5.67677 3.83786L3 6.49982C3.30152 10.1841 4.8694 13.5036 7.70364 16.3222C10.5379 19.1407 14.0588 20.3932 17.7635 20.6931L20.4403 18.0311C21.1866 17.289 21.1866 16.0857 20.4403 15.3436L19.0891 13.9998C18.3428 13.2577 17.1328 13.2577 16.3866 13.9998L13.6295 16.7416C12.1792 16.0973 10.9207 15.4901 9.73051 14.3065C8.54034 13.123 7.62132 12.0533 6.97347 10.6109L9.73051 7.86916C10.4768 7.12701 10.4768 5.92377 9.73051 5.18162L8.37927 3.83786ZM17 8.06047L19.4697 10.5301L20.5304 9.46948L18.0607 6.99981L20.5304 4.53014L19.4697 3.46948L17 5.93915L14.5304 3.46948L13.4697 4.53014L15.9394 6.99981L13.4697 9.46948L14.5304 10.5301L17 8.06047Z" fill="black"/>
</svg>