<svg xmlns="http://www.w3.org/2000/svg" width="24" height="24" viewBox="0 0 24 24" fill="none">
<path d="M5.67677 3.83786C6.42305 3.09571 7.63299 3.09571 8.37927 3.83786L9.73051 5.18162C10.4768 5.92377 10.4768 7.12701 9.73051 7.86916L6.97347 10.6109C7.62132 12.0533 8.54034 13.123 9.73051 14.3065C10.9207 15.4901 12.1792 16.0973 13.6295 16.7416L16.3866 13.9998C17.1328 13.2577 18.3428 13.2577 19.0891 13.9998L20.4403 15.3436C21.1866 16.0857 21.1866 17.289 20.4403 18.0311L17.7635 20.6931C14.0588 20.3932 10.5379 19.1407 7.70364 16.3222C4.8694 13.5036 3.30152 10.1841 3 6.49982L5.67677 3.83786Z" fill="black"/>
</svg>