<svg xmlns="http://www.w3.org/2000/svg" width="24" height="24" viewBox="0 0 24 24" fill="none">
<path d="M15.5 9C16.3284 9 17 8.32843 17 7.5C17 6.67157 16.3284 6 15.5 6C14.6716 6 14 6.67157 14 7.5C14 8.32843 14.6716 9 15.5 9Z" fill="black"/>
<path fill-rule="evenodd" clip-rule="evenodd" d="M3.5 3C3.22386 3 3 3.22386 3 3.5V20.5C3 20.7761 3.22386 21 3.5 21H20.5C20.7761 21 21 20.7761 21 20.5V3.5C21 3.22386 20.7761 3 20.5 3H3.5ZM4.5 4.5V13.4394L7.96965 9.96967C8.11031 9.82902 8.30107 9.75 8.49998 9.75C8.6989 9.75 8.88966 9.82902 9.03032 9.96967L13 13.9393L14.9697 11.9697C15.1103 11.829 15.3011 11.75 15.5 11.75C15.6989 11.75 15.8897 11.829 16.0303 11.9697L19.5 15.4394V4.5H4.5ZM4.5 19.5V15.5607L8.49999 11.5607L12.4697 15.5303C12.7626 15.8232 13.2374 15.8232 13.5303 15.5303L15.5 13.5607L19.5 17.5607V19.5H4.5Z" fill="black"/>
</svg>