<svg width="24" height="24" viewBox="0 0 24 24" fill="none" xmlns="http://www.w3.org/2000/svg">
<path fill-rule="evenodd" clip-rule="evenodd" d="M3.5 3C3.22386 3 3 3.22386 3 3.5V20.5C3 20.7761 3.22386 21 3.5 21H20.5C20.7761 21 21 20.7761 21 20.5V3.5C21 3.22386 20.7761 3 20.5 3H3.5ZM4.5 13.4394V15.5607L8.49999 11.5607L12.4697 15.5303C12.7626 15.8232 13.2374 15.8232 13.5303 15.5303L15.5 13.5607L19.5 17.5607V15.4394L16.0303 11.9697C15.8897 11.829 15.6989 11.75 15.5 11.75C15.3011 11.75 15.1103 11.829 14.9697 11.9697L13 13.9393L9.03032 9.96967C8.88966 9.82902 8.6989 9.75 8.49998 9.75C8.30107 9.75 8.11031 9.82902 7.96965 9.96967L4.5 13.4394ZM17.986 7.53589C17.986 8.36432 17.3144 9.03589 16.486 9.03589C15.6576 9.03589 14.986 8.36432 14.986 7.53589C14.986 6.70746 15.6576 6.03589 16.486 6.03589C17.3144 6.03589 17.986 6.70746 17.986 7.53589Z" fill="black"/>
</svg>