<svg width="24" height="24" viewBox="0 0 24 24" fill="none" xmlns="http://www.w3.org/2000/svg">
<path fill-rule="evenodd" clip-rule="evenodd" d="M3.49985 3C3.22371 3 2.99985 3.22386 2.99985 3.5V15.9306L0.216309 17.67L1.03871 18.9861L22.2738 5.71695L22.279 5.72521L23.8224 4.76073L22.9949 3.43635L20.9998 4.68299V3.5C20.9998 3.22386 20.776 3 20.4998 3H3.49985ZM5.40742 14.4262L9.5299 11.8502L8.49984 10.5607L5.40742 14.4262ZM19.4998 4.5V5.62029L16.9701 7.20108C16.8315 6.51587 16.2259 6 15.4998 6C14.6714 6 13.9998 6.67157 13.9998 7.5C13.9998 7.9849 14.2299 8.41605 14.5869 8.69026L10.7314 11.0994L9.03016 8.96967C8.88951 8.82902 8.69875 8.75 8.49983 8.75C8.30092 8.75 8.11015 8.82902 7.9695 8.96967L4.49985 13.4394V4.5H19.4998Z" fill="black"/>
<path d="M20.9998 8.3545L19.4998 9.2918V15.4394L16.0302 11.9697C15.9042 11.8437 15.738 11.7672 15.5618 11.7526L14.5616 12.3775L12.9998 13.9393L12.6877 13.5485L11.4862 14.2993L12.4695 15.5303C12.7624 15.8232 13.2373 15.8232 13.5302 15.5303L15.4998 13.5607L19.4998 17.5607V19.5H4.49985V18.6648L2.99985 19.6021V20.5C2.99985 20.7761 3.22371 21 3.49985 21H20.4998C20.776 21 20.9998 20.7761 20.9998 20.5V8.3545Z" fill="black"/>
</svg>