<svg width="24" height="24" viewBox="0 0 24 24" fill="none" xmlns="http://www.w3.org/2000/svg">
<path d="M2.75 4C2.33579 4 2 4.33579 2 4.75V12.5H3.5V5.5H20.5V18.5H13.5V20H21.25C21.6642 20 22 19.6642 22 19.25V4.75C22 4.33579 21.6642 4 21.25 4H2.75Z" fill="black"/>
<path d="M18.5303 8.53033L14.8107 12.25H18V13.75H13C12.5858 13.75 12.25 13.4142 12.25 13V8H13.75V11.1893L17.4697 7.46967L18.5303 8.53033Z" fill="black"/>
<path d="M2.5 15C2.22386 15 2 15.2239 2 15.5V19.5C2 19.7761 2.22386 20 2.5 20H10.5C10.7761 20 11 19.7761 11 19.5V15.5C11 15.2239 10.7761 15 10.5 15H2.5Z" fill="black"/>
</svg>