<svg xmlns="http://www.w3.org/2000/svg" width="24" height="24" viewBox="0 0 24 24" fill="none">
<path d="M12 3.75C7.44365 3.75 3.75 7.44365 3.75 12C3.75 16.5563 7.44365 20.25 12 20.25C15.4172 20.25 18.3509 18.1722 19.6032 15.2081L20.985 15.7919C19.5063 19.2917 16.0411 21.75 12 21.75C6.61522 21.75 2.25 17.3848 2.25 12C2.25 6.61522 6.61522 2.25 12 2.25C15.3461 2.25 18.2974 3.93548 20.053 6.50207L20.8637 3.47626L22.3126 3.86449L21.0185 8.69411C20.9113 9.09421 20.5001 9.33165 20.1 9.22444L15.2703 7.93035L15.6586 6.48146L18.7969 7.32236C17.3084 5.16368 14.8187 3.75 12 3.75Z" fill="black"/>
</svg>