<svg xmlns="http://www.w3.org/2000/svg" width="24" height="24" viewBox="0 0 24 24" fill="none">
<path fill-rule="evenodd" clip-rule="evenodd" d="M11.9991 3.75C16.556 3.75 20.25 7.44372 20.25 12C20.25 16.5563 16.556 20.25 11.9991 20.25C8.5815 20.25 5.64754 18.1722 4.39508 15.2081L3.01336 15.7919C4.4922 19.2917 7.95771 21.75 11.9991 21.75C17.3843 21.75 21.75 17.3848 21.75 12C21.75 6.61515 17.3843 2.25 11.9991 2.25C8.65267 2.25 5.70108 3.93552 3.94533 6.50221L3.13444 3.47624L1.68556 3.8645L2.97978 8.69413C3.08699 9.09421 3.49823 9.33164 3.89832 9.22445L8.72842 7.93035L8.34022 6.48146L5.20152 7.32239C6.69016 5.1637 9.1801 3.75 11.9991 3.75Z" fill="black"/>
</svg>