<svg width="24" height="24" viewBox="0 0 24 24" fill="none" xmlns="http://www.w3.org/2000/svg">
<path fill-rule="evenodd" clip-rule="evenodd" d="M17 10.5C17 14.0899 14.0899 17 10.5 17C6.91015 17 4 14.0899 4 10.5C4 6.91015 6.91015 4 10.5 4C14.0899 4 17 6.91015 17 10.5ZM15.3279 16.8795C13.9861 17.8966 12.3135 18.5 10.5 18.5C6.08172 18.5 2.5 14.9183 2.5 10.5C2.5 6.08172 6.08172 2.5 10.5 2.5C14.9183 2.5 18.5 6.08172 18.5 10.5C18.5 12.5639 17.7185 14.4452 16.4352 15.8642L21.1543 20.4629L20.1074 21.5372L15.3279 16.8795Z" fill="black"/>
</svg>
