<svg xmlns="http://www.w3.org/2000/svg" width="24" height="24" viewBox="0 0 24 24" fill="none">
<path fill-rule="evenodd" clip-rule="evenodd" d="M3.65065 2.31732C3.89143 2.13115 4.22083 2.10895 4.48441 2.26113L20.2445 11.3602C20.4766 11.4942 20.6195 11.7418 20.6195 12.0097C20.6195 12.2777 20.4766 12.5253 20.2445 12.6593L4.51826 21.7388C4.25503 21.8908 3.9261 21.8689 3.68537 21.6833C3.44464 21.4977 3.33971 21.1852 3.41969 20.892L5.8418 12.0109L3.38642 3.11009C3.30548 2.8167 3.40988 2.50349 3.65065 2.31732ZM7.19502 12.75L5.34627 19.5287L18.3695 12.0097L5.31898 4.47502L7.18793 11.25H13.0115V12.75H7.19502Z" fill="black"/>
</svg>