<svg xmlns="http://www.w3.org/2000/svg" width="24" height="24" viewBox="0 0 24 24" fill="none">
<path d="M4.3594 2.38828C4.18368 2.28683 3.96408 2.30163 3.80356 2.42574C3.64304 2.54985 3.57345 2.75866 3.6274 2.95426L5.81465 10.883C5.87447 11.0999 6.07171 11.2501 6.29665 11.2501H13L13 12.7501H6.25685C6.03138 12.7501 5.8338 12.901 5.77447 13.1185L3.66087 20.8684C3.60755 21.0639 3.6775 21.2722 3.83799 21.3959C3.99847 21.5197 4.21776 21.5343 4.39325 21.433L20.1195 12.3534C20.2742 12.2641 20.3695 12.099 20.3695 11.9204C20.3695 11.7418 20.2742 11.5767 20.1195 11.4874L4.3594 2.38828Z" fill="black"/>
</svg>