<svg xmlns="http://www.w3.org/2000/svg" width="24" height="24" viewBox="0 0 24 24" fill="none">
<path fill-rule="evenodd" clip-rule="evenodd" d="M14.6251 4.94722L13.3145 3L10.7119 3.00085L9.4013 4.94807L9.05617 5.08356C8.37358 5.37075 7.737 5.75763 7.16605 6.22888L4.80553 6.37972L3.5 8.62008L4.54817 10.7215C4.47574 11.1417 4.43909 11.5686 4.43909 11.9998C4.43909 12.431 4.47574 12.8579 4.54817 13.2772L3.5 15.3778L4.80553 17.619L7.16605 17.7699C7.8316 18.3204 8.58747 18.7541 9.4013 19.0507L10.7119 20.9979H13.3145L14.6251 19.0507C15.4389 18.7541 16.1948 18.3204 16.8604 17.7699L19.2209 17.619L20.5264 15.3787L19.4782 13.2772C19.5507 12.8571 19.5873 12.4301 19.5873 11.9989C19.5873 11.5677 19.5507 11.1408 19.4782 10.7215L20.5264 8.62008L19.2209 6.37887L16.8604 6.22803C16.1948 5.67753 15.4389 5.24377 14.6251 4.94722ZM12.0132 14.9869C13.67 14.9869 15.0132 13.6437 15.0132 11.9869C15.0132 10.33 13.67 8.98688 12.0132 8.98688C10.3563 8.98688 9.01319 10.33 9.01319 11.9869C9.01319 13.6437 10.3563 14.9869 12.0132 14.9869Z" fill="black"/>
</svg>