<svg xmlns="http://www.w3.org/2000/svg" width="24" height="24" viewBox="0 0 24 24" fill="none">
<path d="M13.3145 3L14.6251 4.94722C15.4389 5.24377 16.1948 5.67753 16.8604 6.22803L19.2209 6.37887L20.5264 8.62008L19.4782 10.7215C19.5507 11.1408 19.5873 11.5677 19.5873 11.9989C19.5873 12.4301 19.5507 12.8571 19.4782 13.2772L20.5264 15.3787L19.2209 17.619L16.8604 17.7699C16.1948 18.3204 15.4389 18.7541 14.6251 19.0507L13.3145 20.9979H10.7119L9.4013 19.0507C8.58747 18.7541 7.8316 18.3204 7.16605 17.7699L4.80553 17.619L3.5 15.3778L4.54817 13.2772C4.47574 12.8579 4.43909 12.431 4.43909 11.9998C4.43909 11.5686 4.47574 11.1417 4.54817 10.7215L3.5 8.62008L4.80553 6.37972L7.16605 6.22888C7.737 5.75763 8.37358 5.37075 9.05617 5.08356L9.4013 4.94807L10.7119 3.00085L13.3145 3ZM12.718 4.40183H11.3698L10.2305 6.09509L10.0566 6.15389C9.28285 6.41295 8.57043 6.822 7.95857 7.35546L7.82052 7.47476L5.76848 7.606L5.09868 8.75643L6.00795 10.5801L5.9713 10.7607C5.8929 11.1527 5.85285 11.5533 5.85285 11.9606C5.85285 12.3671 5.8929 12.7676 5.97215 13.1596L6.00795 13.3411L5.09868 15.1648L5.76848 16.3144L7.82052 16.4456L7.95857 16.5649C8.57043 17.0984 9.28285 17.5082 10.0566 17.7665L10.2305 17.8261L11.3698 19.5185H12.718L13.8573 17.8253L14.0312 17.7673C14.8041 17.5082 15.5165 17.0984 16.1292 16.5657L16.2664 16.4464L18.3193 16.3144L18.9891 15.1639L18.0798 13.3411L18.1156 13.1596C18.194 12.7676 18.2349 12.3671 18.2349 11.9606C18.2349 11.5541 18.194 11.1527 18.1156 10.7607L18.0798 10.5792L18.9891 8.75558L18.3193 7.606L16.2664 7.47476L16.1292 7.35546C15.5165 6.822 14.8041 6.41295 14.0312 6.15389L13.8573 6.09509L12.718 4.40183ZM12.0132 9.18678C13.5667 9.18678 14.8254 10.4454 14.8254 11.9989C14.8254 13.5525 13.5667 14.8111 12.0132 14.8111C10.4597 14.8111 9.20104 13.5525 9.20104 11.9989C9.20104 10.4454 10.4597 9.18678 12.0132 9.18678ZM12.0234 10.4608C11.1951 10.4608 10.5236 11.1323 10.5236 11.9606C10.5236 12.7889 11.1951 13.4604 12.0234 13.4604C12.8517 13.4604 13.5233 12.7889 13.5233 11.9606C13.5233 11.1323 12.8517 10.4608 12.0234 10.4608Z" fill="black"/>
</svg>