<svg xmlns="http://www.w3.org/2000/svg" width="24" height="24" viewBox="0 0 24 24" fill="none">
<path d="M21 4.5C21 5.88071 19.8807 7 18.5 7C17.9423 7 17.4272 6.81737 17.0113 6.50865L8.89126 11.1968C8.96213 11.4524 9 11.7218 9 12C9 12.2782 8.96213 12.5476 8.89126 12.8032L17.0113 17.4914C17.4272 17.1826 17.9423 17 18.5 17C19.8807 17 21 18.1193 21 19.5C21 20.8807 19.8807 22 18.5 22C17.1193 22 16 20.8807 16 19.5C16 19.2249 16.0444 18.9602 16.1265 18.7126L8.14058 14.1019C7.59623 14.6562 6.83827 15 6 15C4.34315 15 3 13.6569 3 12C3 10.3431 4.34315 9 6 9C6.83828 9 7.59625 9.34382 8.1406 9.89813L16.1265 5.28745C16.0444 5.03987 16 4.77512 16 4.5C16 3.11929 17.1193 2 18.5 2C19.8807 2 21 3.11929 21 4.5Z" fill="black"/>
</svg>