<svg xmlns="http://www.w3.org/2000/svg" width="24" height="24" viewBox="0 0 24 24" fill="none">
<path fill-rule="evenodd" clip-rule="evenodd" d="M17.5 8C18.8807 8 20 6.88071 20 5.5C20 4.11929 18.8807 3 17.5 3C16.1193 3 15 4.11929 15 5.5C15 5.64236 15.0119 5.78193 15.0348 5.91779L8.1406 9.89813C7.59625 9.34382 6.83828 9 6 9C4.34315 9 3 10.3431 3 12C3 13.6569 4.34315 15 6 15C6.83827 15 7.59623 14.6562 8.14058 14.1019L15.0347 18.0822C15.0119 18.2181 15 18.3577 15 18.5C15 19.8807 16.1193 21 17.5 21C18.8807 21 20 19.8807 20 18.5C20 17.1193 18.8807 16 17.5 16C16.803 16 16.1726 16.2852 15.7192 16.7454L8.89126 12.8032C8.96213 12.5476 9 12.2782 9 12C9 11.7218 8.96213 11.4524 8.89126 11.1968L15.7192 7.25466C16.1726 7.71477 16.803 8 17.5 8ZM17.5 6.5C18.0523 6.5 18.5 6.05228 18.5 5.5C18.5 4.94772 18.0523 4.5 17.5 4.5C16.9477 4.5 16.5 4.94772 16.5 5.5C16.5 6.05228 16.9477 6.5 17.5 6.5ZM7.5 12C7.5 12.8284 6.82843 13.5 6 13.5C5.17157 13.5 4.5 12.8284 4.5 12C4.5 11.1716 5.17157 10.5 6 10.5C6.82843 10.5 7.5 11.1716 7.5 12ZM18.5 18.5C18.5 19.0523 18.0523 19.5 17.5 19.5C16.9477 19.5 16.5 19.0523 16.5 18.5C16.5 17.9477 16.9477 17.5 17.5 17.5C18.0523 17.5 18.5 17.9477 18.5 18.5Z" fill="black"/>
</svg>