<svg width="24" height="24" viewBox="0 0 24 24" fill="none" xmlns="http://www.w3.org/2000/svg">
<path d="M5.74 4.54014C3.61 6.33014 2.25 9.01014 2.25 12.0001H2.24C2.24 14.9901 3.6 17.6701 5.73 19.4601L4.77 20.6101C2.32 18.5501 0.75 15.4501 0.75 12.0001C0.75 8.55014 2.32 5.46014 4.78 3.39014L5.74 4.54014Z" fill="black"/>
<path d="M23.25 12.0001C23.25 8.55014 21.68 5.45014 19.23 3.39014L18.27 4.54014C20.4 6.33014 21.76 9.01014 21.76 12.0001C21.76 14.9901 20.4 17.6701 18.27 19.4601L19.23 20.6101C21.69 18.5401 23.25 15.4501 23.25 12.0001Z" fill="black"/>
<path d="M7.34 17.5501C5.76 16.2201 4.75 14.2301 4.75 12.0001C4.75 9.77014 5.76 7.78014 7.34 6.45014L8.3 7.60014C7.04 8.65014 6.24 10.2401 6.24 12.0001C6.24 13.7601 7.04 15.3401 8.3 16.4001L7.34 17.5501Z" fill="black"/>
<path d="M15.69 16.4001C16.95 15.3501 17.75 13.7701 17.75 12.0001C17.75 10.2401 16.95 8.66014 15.69 7.60014L16.65 6.45014C18.23 7.78014 19.24 9.77014 19.24 12.0001C19.24 14.2301 18.23 16.2201 16.65 17.5501L15.69 16.4001Z" fill="black"/>
<path d="M12 14.5C13.3807 14.5 14.5 13.3807 14.5 12C14.5 10.6193 13.3807 9.5 12 9.5C10.6193 9.5 9.5 10.6193 9.5 12C9.5 13.3807 10.6193 14.5 12 14.5Z" fill="black"/>
</svg>