<svg width="24" height="24" viewBox="0 0 24 24" fill="none" xmlns="http://www.w3.org/2000/svg">
<path d="M12 1C7.16751 1 3.25 4.91751 3.25 9.75V11.0885C3.09441 11.2648 3 11.4964 3 11.75V16.75C3 17.3023 3.44772 17.75 4 17.75H5C6.10457 17.75 7 16.8546 7 15.75V12.75C7 11.6454 6.10457 10.75 5 10.75H4.75V9.75C4.75 5.74594 7.99594 2.5 12 2.5C16.0041 2.5 19.25 5.74594 19.25 9.75V10.75H19C17.8954 10.75 17 11.6454 17 12.75V15.75C17 16.8546 17.8954 17.75 19 17.75H19.5068C19.5102 19.0427 18.9899 19.4683 18.864 19.5713C18.8533 19.5801 18.8454 19.5866 18.841 19.591C18.419 20.013 17.8467 20.25 17.25 20.25H14.049C13.9173 20.022 13.728 19.8326 13.5 19.701C13.272 19.5693 13.0133 19.5 12.75 19.5H11.25C10.8522 19.5 10.4706 19.658 10.1893 19.9394C9.90803 20.2207 9.75 20.6022 9.75 21C9.75 21.3978 9.90803 21.7794 10.1893 22.0607C10.4706 22.342 10.8522 22.5 11.25 22.5H12.75C13.0133 22.5 13.272 22.4307 13.5 22.299C13.728 22.1674 13.9173 21.978 14.049 21.75H17.25C18.139 21.75 18.9954 21.4344 19.6694 20.8651C19.7495 20.7975 19.827 20.7263 19.9016 20.6517C20.6049 19.9484 21 18.9946 21 18V11.75C21 11.4964 20.9056 11.2648 20.75 11.0885V9.75C20.75 4.91751 16.8325 1 12 1Z" fill="black"/>
</svg>