<svg width="24" height="24" viewBox="0 0 24 24" fill="none" xmlns="http://www.w3.org/2000/svg">
<path d="M12 22C17.5229 22 22 17.5229 22 12C22 6.47714 17.5229 2 12 2C6.47714 2 2 6.47714 2 12C2 17.5229 6.47714 22 12 22ZM12 3.42857C12.7371 3.42857 13.6307 4.10571 14.3821 5.73357C14.6486 6.31214 14.8807 6.97857 15.0679 7.71429H8.93214C9.11929 6.97857 9.35143 6.31143 9.61786 5.73357C10.3693 4.10571 11.2629 3.42857 12 3.42857ZM8.32143 5.135C7.97143 5.89214 7.68143 6.76214 7.46357 7.71429H4.575C5.56391 6.00479 7.11102 4.6877 8.95643 3.98429C8.71563 4.35092 8.50311 4.73536 8.32071 5.13429L8.32143 5.135ZM7.19857 9.14286C7.0649 10.0893 6.99855 11.0441 7 12C7 12.99 7.06929 13.95 7.19929 14.8571H3.91643C3.59252 13.9394 3.42754 12.9732 3.42857 12C3.42857 10.9986 3.6 10.0364 3.91643 9.14286H7.19857ZM7.46286 16.2857C7.68071 17.2379 7.97071 18.1079 8.32 18.865C8.50786 19.2721 8.72 19.6593 8.95571 20.015C7.11071 19.3116 5.5639 17.9948 4.575 16.2857H7.46429H7.46286ZM8.93214 16.2857H15.0664C14.8987 16.9655 14.6692 17.6285 14.3807 18.2664C13.6314 19.8943 12.7379 20.5714 12 20.5714C11.2621 20.5714 10.3693 19.8943 9.61786 18.2664C9.32937 17.6285 9.09984 16.9655 8.93214 16.2857ZM15.3557 14.8571H8.64286C8.49831 13.9117 8.42668 12.9565 8.42857 12C8.42857 10.995 8.505 10.0343 8.64286 9.14286H15.3571C15.495 10.0343 15.5714 10.995 15.5714 12C15.5714 13.005 15.495 13.9657 15.3571 14.8571H15.3557ZM16.5357 16.2857H19.4243C18.4352 17.9949 16.8881 19.3117 15.0429 20.015C15.2786 19.6593 15.4907 19.2721 15.6786 18.865C16.0279 18.1079 16.3179 17.2379 16.5357 16.2857ZM20.0829 14.8571H16.8C16.93 13.95 16.9993 12.99 16.9993 12C16.9993 11.01 16.93 10.05 16.8 9.14286H20.0829C20.407 10.0605 20.5722 11.0268 20.5714 12C20.5714 13.0014 20.3993 13.9636 20.0829 14.8571ZM15.0436 3.98429C16.889 4.6877 18.4361 6.00479 19.425 7.71429H16.5357C16.3179 6.76214 16.0279 5.89214 15.6786 5.135C15.4962 4.73608 15.2837 4.35163 15.0429 3.985L15.0436 3.98429Z" fill="black"/>
</svg>
