<svg xmlns="http://www.w3.org/2000/svg" width="24" height="24" viewBox="0 0 24 24" fill="none">
<path fill-rule="evenodd" clip-rule="evenodd" d="M12 3.25C9.23858 3.25 7 5.48858 7 8.25C7 9.93852 7.83699 11.4316 9.1187 12.3368C5.79243 12.8658 3.25 15.7471 3.25 19.2222V21H4.75V19.2222C4.75 16.2 7.2 13.75 10.2222 13.75H13.7778C16.8 13.75 19.25 16.2 19.25 19.2222V21H20.75V19.2222C20.75 15.7471 18.2076 12.8658 14.8813 12.3368C16.163 11.4316 17 9.93852 17 8.25C17 5.48858 14.7614 3.25 12 3.25ZM8.5 8.25C8.5 6.317 10.067 4.75 12 4.75C13.933 4.75 15.5 6.317 15.5 8.25C15.5 10.183 13.933 11.75 12 11.75C10.067 11.75 8.5 10.183 8.5 8.25Z" fill="black"/>
</svg>