<svg xmlns="http://www.w3.org/2000/svg" width="24" height="24" viewBox="0 0 24 24" fill="none">
<path fill-rule="evenodd" clip-rule="evenodd" d="M2.98992 15.9821C3.48001 17.1652 4.19907 18.2399 5.10578 19.1442L3.10356 21.1464C2.78858 21.4614 3.01166 22 3.45711 22H12C17.3849 22 21.75 17.6349 21.75 12.25C21.75 6.86508 17.3849 2.5 12 2.5C6.61508 2.5 2.25001 6.86508 2.25001 12.25C2.24838 13.5306 2.49983 14.799 2.98992 15.9821ZM10.7585 13.4339C10.1388 12.8141 9.65953 12.107 9.32086 11.3522L10.794 9.87905C11.1749 9.49816 11.1749 8.88061 10.794 8.49972L10.0617 7.76744C9.68083 7.38655 9.06329 7.38655 8.68239 7.76744L7.59283 8.85702C7.3905 9.05935 7.28408 9.34079 7.32238 9.62435C7.5617 11.3961 8.36225 13.1066 9.72404 14.4684C11.0858 15.8302 12.7963 16.6308 14.5681 16.8701C14.8516 16.9084 15.1331 16.802 15.3354 16.5996L16.425 15.51C16.8059 15.1291 16.8059 14.5116 16.425 14.1307L15.6928 13.3984C15.3119 13.0175 14.6943 13.0175 14.3134 13.3984L12.8402 14.8716C12.0854 14.5329 11.3783 14.0537 10.7585 13.4339Z" fill="black"/>
</svg>