<svg width="24" height="24" viewBox="0 0 24 24" fill="none" xmlns="http://www.w3.org/2000/svg">
<path fill-rule="evenodd" clip-rule="evenodd" d="M16.6511 10.1613C16.6511 10.1613 16.6511 10.1613 16.6511 10.1613L17.9613 9.40487C17.9613 9.40486 17.9613 9.40488 17.9613 9.40487L19.7023 8.39967C19.7023 8.39967 19.7023 8.39968 19.7023 8.39967L21.0057 7.64719C21.0057 7.64718 21.0057 7.64719 21.0057 7.64719L22.3009 6.89938L21.5509 5.60034L20.2524 6.35005C19.9027 5.84024 19.5069 5.36447 19.0712 4.92873L18.0105 5.98939C18.3538 6.33265 18.6678 6.70513 18.9486 7.10278L17.2068 8.1084C17.0202 7.85906 16.816 7.62357 16.5962 7.40375L15.5355 8.46441C15.6626 8.59146 15.7828 8.72532 15.8957 8.86539L14.0001 9.95979L14.0001 3.24684C14.0001 2.86194 13.5835 2.62138 13.2501 2.81383L6.11617 6.93262C6.04016 6.9765 5.95395 6.9996 5.86618 6.9996L2.50011 6.9997C2.22397 6.99971 2.00012 7.22356 2.00012 7.4997V16.4996C2.00012 16.6218 2.04397 16.7338 2.11679 16.8206L1.63232 17.1003L2.38232 18.3994L16.6511 10.1613ZM4.4049 15.4996H3.50012V8.49967L5.86622 8.4996C6.21728 8.4996 6.56215 8.40718 6.86617 8.23166L12.5001 4.97889V10.8258L4.4049 15.4996Z" fill="black"/>
<path d="M12.5001 19.0203L8.4035 16.6551L6.9035 17.5212L13.2501 21.1854C13.5835 21.3778 14.0001 21.1373 14.0001 20.7524L14.0001 13.4239L12.5001 14.29V19.0203Z" fill="black"/>
<path d="M17.0001 12.0001C17.0001 11.8984 16.9971 11.7973 16.9911 11.6971L18.4042 10.8812C18.4672 11.2447 18.5001 11.6186 18.5001 12.0001C18.5001 13.7949 17.7726 15.4199 16.5965 16.5961L15.5358 15.5355C16.4405 14.6307 17.0001 13.3807 17.0001 12.0001Z" fill="black"/>
<path d="M20.5002 11.9998C20.5002 11.2507 20.4033 10.5242 20.2213 9.83214L21.5607 9.05883C21.8464 9.98869 22.0002 10.9763 22.0002 11.9998C22.0002 14.7613 20.8809 17.2613 19.0712 19.0709L18.0106 18.0103C19.5488 16.4721 20.5002 14.3471 20.5002 11.9998Z" fill="black"/>
</svg>