<svg xmlns="http://www.w3.org/2000/svg" width="24" height="24" viewBox="0 0 24 24" fill="none">
<path d="M5.86603 16.9996H2.5C2.22386 16.9996 2 16.7757 2 16.4996V7.4997C2 7.22356 2.22385 6.99971 2.49999 6.9997L5.86606 6.9996C5.95382 6.9996 6.04004 6.9765 6.11605 6.93262L13.25 2.81383C13.5833 2.62138 14 2.86194 14 3.24684V20.7524C14 21.1373 13.5833 21.3778 13.25 21.1854L6.11603 17.0666C6.04002 17.0227 5.95379 16.9996 5.86603 16.9996Z" fill="black"/>
<path d="M22 11.9998C22 14.7613 20.8808 17.2613 19.0711 19.0709L18.0105 18.0103C19.5487 16.4721 20.5 14.3471 20.5 11.9998C20.5 9.65261 19.5486 7.52759 18.0104 5.98939L19.0711 4.92873C20.8807 6.73838 22 9.2384 22 11.9998Z" fill="black"/>
<path d="M18.5 12.0001C18.5 13.7949 17.7725 15.4199 16.5963 16.5961L15.5357 15.5355C16.4404 14.6307 17 13.3807 17 12.0001C17 10.6193 16.4403 9.36925 15.5354 8.46441L16.596 7.40375C17.7724 8.58003 18.5 10.2051 18.5 12.0001Z" fill="black"/>
</svg>