<svg width="24" height="24" viewBox="0 0 24 24" fill="none" xmlns="http://www.w3.org/2000/svg">
<path d="M16.6503 10.1598L17.9605 9.40346L19.7014 8.39829L21.0048 7.64581L22.2985 6.89889L21.5485 5.59985L20.2513 6.3488C19.9018 5.83946 19.5063 5.36411 19.0709 4.92873L18.0103 5.98939C18.3532 6.33229 18.6669 6.70435 18.9475 7.10154L17.2057 8.10718C17.0192 7.85829 16.8154 7.62321 16.5959 7.40375L15.5353 8.46441C15.662 8.5911 15.7819 8.72456 15.8945 8.86419L13.9999 9.95803V3.24684C13.9999 2.86194 13.5832 2.62138 13.2499 2.81383L6.11592 6.93262C6.03992 6.9765 5.9537 6.9996 5.86594 6.9996L2.49986 6.9997C2.22373 6.99971 1.99988 7.22356 1.99988 7.4997V16.4996C1.99988 16.6213 2.04333 16.7328 2.11555 16.8195L1.62988 17.0999L2.37988 18.3989L16.6503 10.1598Z" fill="black"/>
<path d="M13.9999 20.7524V13.4222L6.90174 17.5203L13.2499 21.1854C13.5832 21.3778 13.9999 21.1373 13.9999 20.7524Z" fill="black"/>
<path d="M18.4037 10.8796L16.9907 11.6954C16.9968 11.7962 16.9999 11.8978 16.9999 12.0001C16.9999 13.3807 16.4403 14.6307 15.5355 15.5355L16.5962 16.5961C17.7724 15.4199 18.4999 13.7949 18.4999 12.0001C18.4999 11.618 18.4669 11.2436 18.4037 10.8796Z" fill="black"/>
<path d="M20.4999 11.9998C20.4999 11.2501 20.4029 10.5231 20.2206 9.83062L21.56 9.05734C21.846 9.98764 21.9999 10.9758 21.9999 11.9998C21.9999 14.7613 20.8806 17.2613 19.071 19.0709L18.0103 18.0103C19.5485 16.4721 20.4999 14.3471 20.4999 11.9998Z" fill="black"/>
</svg>